<svg xmlns="http://www.w3.org/2000/svg" xmlns:xlink="http://www.w3.org/1999/xlink" contentStyleType="text/css" data-diagram-type="DESCRIPTION" height="853px" preserveAspectRatio="none" style="width:736px;height:853px;background:#FFFFFF;" version="1.1" viewBox="0 0 736 853" width="736px" zoomAndPan="magnify"><defs/><g><!--cluster Tutor Booking System--><g class="cluster" data-entity="Tutor Booking System" data-source-line="4" data-uid="ent0002" id="cluster_Tutor Booking System"><rect fill="none" height="781" rx="2.5" ry="2.5" style="stroke:#181818;stroke-width:1;" width="268.66" x="462.33" y="7"/><text fill="#000000" font-family="sans-serif" font-size="14" font-weight="bold" lengthAdjust="spacing" textLength="174.8018" x="509.2591" y="21.9951">Tutor Booking System</text></g><g class="entity" data-entity="UC1" data-source-line="6" data-uid="ent0003" id="entity_UC1"><ellipse cx="596.6582" cy="362.0036" fill="#ADD8E6" rx="73.0682" ry="17.0136" style="stroke:#181818;stroke-width:0.5;"/><text fill="#000000" font-family="sans-serif" font-size="14" lengthAdjust="spacing" textLength="101.001" x="543.1577" y="365.7512">Register/Login</text></g><g class="entity" data-entity="UC2" data-source-line="7" data-uid="ent0004" id="entity_UC2"><ellipse cx="596.6576" cy="207.9995" fill="#ADD8E6" rx="71.6976" ry="16.7395" style="stroke:#181818;stroke-width:0.5;"/><text fill="#000000" font-family="sans-serif" font-size="14" lengthAdjust="spacing" textLength="97.3848" x="544.9652" y="211.7471">Search Tutors</text></g><g class="entity" data-entity="UC3" data-source-line="8" data-uid="ent0005" id="entity_UC3"><ellipse cx="596.6561" cy="58.0012" fill="#ADD8E6" rx="69.9561" ry="16.3912" style="stroke:#181818;stroke-width:0.5;"/><text fill="#000000" font-family="sans-serif" font-size="14" lengthAdjust="spacing" textLength="92.709" x="547.3016" y="61.7488">Book Session</text></g><g class="entity" data-entity="UC4" data-source-line="9" data-uid="ent0006" id="entity_UC4"><ellipse cx="596.656" cy="430.9952" fill="#ADD8E6" rx="74.276" ry="17.2552" style="stroke:#181818;stroke-width:0.5;"/><text fill="#000000" font-family="sans-serif" font-size="14" lengthAdjust="spacing" textLength="104.1455" x="541.5832" y="434.7427">Manage Profile</text></g><g class="entity" data-entity="UC5" data-source-line="10" data-uid="ent0007" id="entity_UC5"><ellipse cx="596.6643" cy="285.0029" fill="#ADD8E6" rx="112.4143" ry="24.8829" style="stroke:#181818;stroke-width:0.5;"/><text fill="#000000" font-family="sans-serif" font-size="14" lengthAdjust="spacing" textLength="191.0918" x="501.1184" y="287.8495">Cancel/Reschedule Session</text></g><g class="entity" data-entity="UC6" data-source-line="13" data-uid="ent0008" id="entity_UC6"><ellipse cx="596.6629" cy="583.0046" fill="#EAEAEA" rx="74.1229" ry="17.2246" style="stroke:#181818;stroke-width:0.5;"/><text fill="#000000" font-family="sans-serif" font-size="14" lengthAdjust="spacing" textLength="103.749" x="541.7884" y="586.7521">Make Payment</text></g><g class="entity" data-entity="UC7" data-source-line="14" data-uid="ent0009" id="entity_UC7"><ellipse cx="596.662" cy="659.9984" fill="#EAEAEA" rx="112.592" ry="24.9184" style="stroke:#181818;stroke-width:0.5;"/><text fill="#000000" font-family="sans-serif" font-size="14" lengthAdjust="spacing" textLength="191.4746" x="500.9247" y="662.8451">Send Booking Confirmation</text></g><g class="entity" data-entity="UC8" data-source-line="15" data-uid="ent0010" id="entity_UC8"><ellipse cx="596.6639" cy="141.0048" fill="#EAEAEA" rx="63.4239" ry="15.0848" style="stroke:#181818;stroke-width:0.5;"/><text fill="#000000" font-family="sans-serif" font-size="14" lengthAdjust="spacing" textLength="74.0947" x="556.6165" y="144.7523">Rate Tutor</text></g><g class="entity" data-entity="UC9" data-source-line="16" data-uid="ent0011" id="entity_UC9"><ellipse cx="596.6593" cy="507.0019" fill="#EAEAEA" rx="108.6093" ry="24.1219" style="stroke:#181818;stroke-width:0.5;"/><text fill="#000000" font-family="sans-serif" font-size="14" lengthAdjust="spacing" textLength="182.8682" x="505.2252" y="509.8485">Manage Users &amp; Bookings</text></g><g class="entity" data-entity="UC10" data-source-line="17" data-uid="ent0012" id="entity_UC10"><ellipse cx="596.6593" cy="745.9959" fill="#EAEAEA" rx="118.3293" ry="26.0659" style="stroke:#181818;stroke-width:0.5;"/><text fill="#000000" font-family="sans-serif" font-size="14" lengthAdjust="spacing" textLength="203.7861" x="494.7662" y="748.8425">Monitor System Performance</text></g><!--entity actor1--><g class="entity" data-entity="actor1" data-source-line="21" data-uid="ent0013" id="entity_actor1"><ellipse cx="271.6157" cy="153.35" fill="#F1F1F1" rx="8" ry="8" style="stroke:#181818;stroke-width:0.5;"/><path d="M271.6157,161.35 L271.6157,188.35 M258.6157,169.35 L284.6157,169.35 M271.6157,188.35 L258.6157,203.35 M271.6157,188.35 L284.6157,203.35" fill="none" style="stroke:#181818;stroke-width:0.5;"/><text fill="#000000" font-family="sans-serif" font-size="14" lengthAdjust="spacing" textLength="55.1113" x="244.06" y="217.8451">Student</text></g><!--entity actor2--><g class="entity" data-entity="actor2" data-source-line="22" data-uid="ent0014" id="entity_actor2"><ellipse cx="271.6177" cy="447.35" fill="#F1F1F1" rx="8" ry="8" style="stroke:#181818;stroke-width:0.5;"/><path d="M271.6177,455.35 L271.6177,482.35 M258.6177,463.35 L284.6177,463.35 M271.6177,482.35 L258.6177,497.35 M271.6177,482.35 L284.6177,497.35" fill="none" style="stroke:#181818;stroke-width:0.5;"/><text fill="#000000" font-family="sans-serif" font-size="14" lengthAdjust="spacing" textLength="37.2354" x="253" y="511.8451">Tutor</text></g><!--entity actor3--><g class="entity" data-entity="actor3" data-source-line="23" data-uid="ent0015" id="entity_actor3"><ellipse cx="271.6204" cy="336.35" fill="#F1F1F1" rx="8" ry="8" style="stroke:#181818;stroke-width:0.5;"/><path d="M271.6204,344.35 L271.6204,371.35 M258.6204,352.35 L284.6204,352.35 M271.6204,371.35 L258.6204,386.35 M271.6204,371.35 L284.6204,386.35" fill="none" style="stroke:#181818;stroke-width:0.5;"/><text fill="#000000" font-family="sans-serif" font-size="14" lengthAdjust="spacing" textLength="159.4209" x="191.91" y="400.8451">Platform Administrator</text></g><!--entity actor4--><g class="entity" data-entity="actor4" data-source-line="24" data-uid="ent0016" id="entity_actor4"><ellipse cx="271.6174" cy="558.35" fill="#F1F1F1" rx="8" ry="8" style="stroke:#181818;stroke-width:0.5;"/><path d="M271.6174,566.35 L271.6174,593.35 M258.6174,574.35 L284.6174,574.35 M271.6174,593.35 L258.6174,608.35 M271.6174,593.35 L284.6174,608.35" fill="none" style="stroke:#181818;stroke-width:0.5;"/><text fill="#000000" font-family="sans-serif" font-size="14" lengthAdjust="spacing" textLength="128.2148" x="207.51" y="622.8451">Payment Gateway</text></g><!--entity actor5--><g class="entity" data-entity="actor5" data-source-line="25" data-uid="ent0017" id="entity_actor5"><ellipse cx="271.6166" cy="669.35" fill="#F1F1F1" rx="8" ry="8" style="stroke:#181818;stroke-width:0.5;"/><path d="M271.6166,677.35 L271.6166,704.35 M258.6166,685.35 L284.6166,685.35 M271.6166,704.35 L258.6166,719.35 M271.6166,704.35 L284.6166,719.35" fill="none" style="stroke:#181818;stroke-width:0.5;"/><text fill="#000000" font-family="sans-serif" font-size="14" lengthAdjust="spacing" textLength="95.0332" x="224.1" y="733.8451">Email Service</text></g><!--entity actor6--><g class="entity" data-entity="actor6" data-source-line="26" data-uid="ent0018" id="entity_actor6"><ellipse cx="271.6242" cy="780.35" fill="#F1F1F1" rx="8" ry="8" style="stroke:#181818;stroke-width:0.5;"/><path d="M271.6242,788.35 L271.6242,815.35 M258.6242,796.35 L284.6242,796.35 M271.6242,815.35 L258.6242,830.35 M271.6242,815.35 L284.6242,830.35" fill="none" style="stroke:#181818;stroke-width:0.5;"/><text fill="#000000" font-family="sans-serif" font-size="14" lengthAdjust="spacing" textLength="116.1084" x="213.57" y="844.8451">IT/DevOps Team</text></g><!--entity actor0--><g class="entity" data-entity="actor0" data-source-line="49" data-uid="ent0033" id="entity_actor0"><ellipse cx="21.9551" cy="293.35" fill="#F1F1F1" rx="8" ry="8" style="stroke:#181818;stroke-width:0.5;"/><path d="M21.9551,301.35 L21.9551,328.35 M8.9551,309.35 L34.9551,309.35 M21.9551,328.35 L8.9551,343.35 M21.9551,328.35 L34.9551,343.35" fill="none" style="stroke:#181818;stroke-width:0.5;"/><text fill="#000000" font-family="sans-serif" font-size="14" lengthAdjust="spacing" textLength="31.9102" x="6" y="357.8451">User</text></g><!--link actor1 to UC1--><g class="link" data-entity-1="actor1" data-entity-2="UC1" data-source-line="29" data-uid="lnk19" id="link_actor1_UC1"><path d="M299.47,194.21 C337.69,211.53 407.44,248.37 446.33,301 C453.52,310.73 445.55,318.69 454.33,327 C473.25,344.89 493.9173,352.9738 518.9273,357.5338" fill="none" id="actor1-to-UC1" style="stroke:#181818;stroke-width:1;"/><polygon fill="#181818" points="524.83,358.61,516.6934,353.0605,519.9111,357.7131,515.2585,360.9308,524.83,358.61" style="stroke:#181818;stroke-width:1;"/></g><!--link actor1 to UC2--><g class="link" data-entity-1="actor1" data-entity-2="UC2" data-source-line="30" data-uid="lnk20" id="link_actor1_UC2"><path d="M299.46,182.14 C333.63,181.31 394.48,180.73 446.33,185 C477.44,187.56 505.9757,191.6993 533.9457,196.4793" fill="none" id="actor1-to-UC2" style="stroke:#181818;stroke-width:1;"/><polygon fill="#181818" points="539.86,197.49,531.6624,192.0311,534.9315,196.6477,530.3148,199.9167,539.86,197.49" style="stroke:#181818;stroke-width:1;"/></g><!--link actor1 to UC3--><g class="link" data-entity-1="actor1" data-entity-2="UC3" data-source-line="31" data-uid="lnk21" id="link_actor1_UC3"><path d="M299.6,153.11 C319.97,132.52 349.74,106.38 381.33,92 C427.11,71.17 477.4464,63.2538 520.8564,60.0338" fill="none" id="actor1-to-UC3" style="stroke:#181818;stroke-width:1;"/><polygon fill="#181818" points="526.84,59.59,517.5688,56.2667,521.8537,59.9599,518.1606,64.2448,526.84,59.59" style="stroke:#181818;stroke-width:1;"/></g><!--link actor1 to UC5--><g class="link" data-entity-1="actor1" data-entity-2="UC5" data-source-line="32" data-uid="lnk22" id="link_actor1_UC5"><path d="M299.46,182.93 C336.41,184.2 403.27,191.54 446.33,226 C452.54,230.97 448.26,236.87 454.33,242 C469.22,254.58 482.0443,261.5634 500.7043,267.8534" fill="none" id="actor1-to-UC5" style="stroke:#181818;stroke-width:1;"/><polygon fill="#181818" points="506.39,269.77,499.1392,263.1047,501.6519,268.1729,496.5838,270.6856,506.39,269.77" style="stroke:#181818;stroke-width:1;"/></g><!--link actor1 to UC8--><g class="link" data-entity-1="actor1" data-entity-2="UC8" data-source-line="33" data-uid="lnk23" id="link_actor1_UC8"><path d="M299.47,162.39 C320.47,147.63 351.09,129.02 381.33,121 C440.75,105.25 506.4968,116.5147 550.0568,127.6447" fill="none" id="actor1-to-UC8" style="stroke:#181818;stroke-width:1;"/><polygon fill="#181818" points="555.87,129.13,548.1404,123.0265,551.0256,127.8922,546.1599,130.7775,555.87,129.13" style="stroke:#181818;stroke-width:1;"/></g><!--link actor2 to UC1--><g class="link" data-entity-1="actor2" data-entity-2="UC1" data-source-line="35" data-uid="lnk24" id="link_actor2_UC1"><path d="M290.49,467.71 C322.57,451.33 392.36,417.07 454.33,396 C481.93,386.62 507.5302,380.0695 533.7502,374.2995" fill="none" id="actor2-to-UC1" style="stroke:#181818;stroke-width:1;"/><polygon fill="#181818" points="539.61,373.01,529.9606,371.0377,534.7268,374.0846,531.68,378.8508,539.61,373.01" style="stroke:#181818;stroke-width:1;"/></g><!--link actor2 to UC4--><g class="link" data-entity-1="actor2" data-entity-2="UC4" data-source-line="36" data-uid="lnk25" id="link_actor2_UC4"><path d="M290.5,489.45 C324.89,511.73 400.87,552.64 446.33,514 C463.14,499.71 439.32,481.17 454.33,465 C471.76,446.23 491.6684,438.0261 516.4984,433.7161" fill="none" id="actor2-to-UC4" style="stroke:#181818;stroke-width:1;"/><polygon fill="#181818" points="522.41,432.69,512.8585,430.2881,517.4837,433.5451,514.2267,438.1703,522.41,432.69" style="stroke:#181818;stroke-width:1;"/></g><!--link actor3 to UC1--><g class="link" data-entity-1="actor3" data-entity-2="UC1" data-source-line="38" data-uid="lnk26" id="link_actor3_UC1"><path d="M351.65,365.02 C404.04,364.37 466.2605,363.6041 517.2505,362.9741" fill="none" id="actor3-to-UC1" style="stroke:#181818;stroke-width:1;"/><polygon fill="#181818" points="523.25,362.9,514.2013,359.0115,518.2504,362.9618,514.3001,367.0109,523.25,362.9" style="stroke:#181818;stroke-width:1;"/></g><!--link actor3 to UC4--><g class="link" data-entity-1="actor3" data-entity-2="UC4" data-source-line="39" data-uid="lnk27" id="link_actor3_UC4"><path d="M351.65,381.9 C409.74,393.59 481.4079,408.0166 533.3479,418.4666" fill="none" id="actor3-to-UC4" style="stroke:#181818;stroke-width:1;"/><polygon fill="#181818" points="539.23,419.65,531.1958,413.9534,534.3282,418.6638,529.6178,421.7962,539.23,419.65" style="stroke:#181818;stroke-width:1;"/></g><!--link actor3 to UC5--><g class="link" data-entity-1="actor3" data-entity-2="UC5" data-source-line="40" data-uid="lnk28" id="link_actor3_UC5"><path d="M335.23,327.39 C349.9,319.84 365.79,312.78 381.33,308 C414.24,297.88 445.1984,292.6427 479.0184,289.3427" fill="none" id="actor3-to-UC5" style="stroke:#181818;stroke-width:1;"/><polygon fill="#181818" points="484.99,288.76,475.6441,285.6529,480.0136,289.2456,476.421,293.6151,484.99,288.76" style="stroke:#181818;stroke-width:1;"/></g><!--link actor3 to UC9--><g class="link" data-entity-1="actor3" data-entity-2="UC9" data-source-line="41" data-uid="lnk29" id="link_actor3_UC9"><path d="M334.42,404.47 C368.8,424.72 412.91,448.84 454.33,466 C475.93,474.95 494.3686,481.0996 516.5686,487.4096" fill="none" id="actor3-to-UC9" style="stroke:#181818;stroke-width:1;"/><polygon fill="#181818" points="522.34,489.05,514.7765,482.7418,517.5305,487.683,512.5893,490.437,522.34,489.05" style="stroke:#181818;stroke-width:1;"/></g><!--link actor4 to UC6--><g class="link" data-entity-1="actor4" data-entity-2="UC6" data-source-line="43" data-uid="lnk30" id="link_actor4_UC6"><path d="M336.06,587.02 C389.53,586.19 460.0807,585.103 516.2007,584.233" fill="none" id="actor4-to-UC6" style="stroke:#181818;stroke-width:1;"/><polygon fill="#181818" points="522.2,584.14,513.1391,580.28,517.2006,584.2175,513.2631,588.279,522.2,584.14" style="stroke:#181818;stroke-width:1;"/></g><!--link actor5 to UC7--><g class="link" data-entity-1="actor5" data-entity-2="UC7" data-source-line="44" data-uid="lnk31" id="link_actor5_UC7"><path d="M319.59,693.33 C365.88,687.74 432.0632,679.7487 490.9932,672.6387" fill="none" id="actor5-to-UC7" style="stroke:#181818;stroke-width:1;"/><polygon fill="#181818" points="496.95,671.92,487.5357,669.0268,491.986,672.5189,488.4939,676.9692,496.95,671.92" style="stroke:#181818;stroke-width:1;"/></g><!--link actor6 to UC10--><g class="link" data-entity-1="actor6" data-entity-2="UC10" data-source-line="46" data-uid="lnk32" id="link_actor6_UC10"><path d="M330,798.63 C379.23,788.88 445.0643,775.8355 501.5743,764.6455" fill="none" id="actor6-to-UC10" style="stroke:#181818;stroke-width:1;"/><polygon fill="#181818" points="507.46,763.48,497.8544,761.3044,502.5552,764.4512,499.4084,769.152,507.46,763.48" style="stroke:#181818;stroke-width:1;"/></g><!--link actor0 to actor1--><g class="link" data-entity-1="actor0" data-entity-2="actor1" data-source-line="50" data-uid="lnk34" id="link_actor0_actor1"><path d="M38.07,314.45 C78.93,291.36 186.7167,230.4325 238.6567,201.0725" fill="none" id="actor0-to-actor1" style="stroke:#181818;stroke-width:1;"/><polygon fill="#181818" points="243.88,198.12,234.0767,199.0666,239.5273,200.5805,238.0135,206.031,243.88,198.12" style="stroke:#181818;stroke-width:1;"/><text fill="#000000" font-family="sans-serif" font-size="13" lengthAdjust="spacing" textLength="92.7139" x="68.91" y="241.0669">generalization</text></g><!--link actor0 to actor2--><g class="link" data-entity-1="actor0" data-entity-2="actor2" data-source-line="51" data-uid="lnk35" id="link_actor0_actor2"><path d="M38.07,332.4 C81.45,359.37 201.0649,433.7514 247.6649,462.7314" fill="none" id="actor0-to-actor2" style="stroke:#181818;stroke-width:1;"/><polygon fill="#181818" points="252.76,465.9,247.2297,457.7504,248.5141,463.2595,243.005,464.5439,252.76,465.9" style="stroke:#181818;stroke-width:1;"/><text fill="#000000" font-family="sans-serif" font-size="13" lengthAdjust="spacing" textLength="92.7139" x="68.91" y="349.0669">generalization</text></g><!--link UC3 to UC6--><g class="link" data-entity-1="UC3" data-entity-2="UC6" data-source-line="54" data-uid="lnk36" id="link_UC3_UC6"><path d="M534.59,65.76 C506.28,72.45 474.63,84.88 454.33,108 C393.95,176.78 421.3,218.47 411.8,309.5 C400.58,417.03 379.65,470.83 454.33,549 C472.06,567.55 492.0398,575.7258 516.8998,580.0758" fill="none" id="UC3-to-UC6" style="stroke:#181818;stroke-width:1;stroke-dasharray:7.0,7.0;"/><polygon fill="#181818" points="522.81,581.11,514.6341,575.6186,517.8848,580.2482,513.2553,583.4989,522.81,581.11" style="stroke:#181818;stroke-width:1;"/><text fill="#000000" font-family="sans-serif" font-size="13" lengthAdjust="spacing" textLength="63.0068" x="382.33" y="322.5669">&#171;include&#187;</text></g><!--link UC3 to UC7--><g class="link" data-entity-1="UC3" data-entity-2="UC7" data-source-line="55" data-uid="lnk37" id="link_UC3_UC7"><path d="M534.02,65.67 C505.76,72.33 474.32,84.77 454.33,108 C388.38,184.65 421.3,230.83 411.8,331.5 C399.72,459.66 369.43,521.24 454.33,618 C466.23,631.56 476.6367,638.7474 493.6467,645.0774" fill="none" id="UC3-to-UC7" style="stroke:#181818;stroke-width:1;stroke-dasharray:7.0,7.0;"/><polygon fill="#181818" points="499.27,647.17,492.2302,640.2823,494.584,645.4262,489.44,647.7799,499.27,647.17" style="stroke:#181818;stroke-width:1;"/><text fill="#000000" font-family="sans-serif" font-size="13" lengthAdjust="spacing" textLength="63.0068" x="382.33" y="344.5669">&#171;include&#187;</text></g><!--reverse link UC5 to UC3--><g class="link" data-entity-1="UC5" data-entity-2="UC3" data-source-line="58" data-uid="lnk38" id="link_UC5_UC3"><path d="M499.2273,268.3953 C480.8573,262.0653 468.54,254.96 454.33,242 C412.8,204.1 380.28,168.37 412.8,122.5 C439.12,85.39 488.53,69.47 529.51,62.72" fill="none" id="UC5-backto-UC3" style="stroke:#181818;stroke-width:1;stroke-dasharray:7.0,7.0;"/><polygon fill="#181818" points="504.9,270.35,497.6941,263.6362,500.1728,268.7211,495.0879,271.1997,504.9,270.35" style="stroke:#181818;stroke-width:1;"/><text fill="#000000" font-family="sans-serif" font-size="13" lengthAdjust="spacing" textLength="61.1851" x="383.33" y="135.5669">&#171;extend&#187;</text></g><!--reverse link UC8 to UC3--><g class="link" data-entity-1="UC8" data-entity-2="UC3" data-source-line="61" data-uid="lnk39" id="link_UC8_UC3"><path d="M596.66,119.78 C596.66,105.36 596.66,89.76 596.66,74.84" fill="none" id="UC8-backto-UC3" style="stroke:#181818;stroke-width:1;stroke-dasharray:7.0,7.0;"/><polygon fill="#181818" points="596.66,125.78,600.66,116.78,596.66,120.78,592.66,116.78,596.66,125.78" style="stroke:#181818;stroke-width:1;"/><text fill="#000000" font-family="sans-serif" font-size="13" lengthAdjust="spacing" textLength="61.1851" x="554.66" y="104.7169">&#171;extend&#187;</text></g><!--SRC=[VLNRJXin47tFLun0AaNY4d838eGKI8IGMef2-01dTtPZuTYHxKswhVhl7NljR1O2GWZ6SpoNC-Ep0ZCBLe7c-S92oZKcbYlPQXt163Ck4Um2mPJ6uXBcgf0fqsNBePZC1SB1hB1AmvrIRrpcyEA11_2t1N04TymW5FIRq3y6DjmkGFX4Sr7GgH9qzN0q7bzD1dI1a0u81rFCESNHvpzKpkK1C0ElznVxa2_8TB80NuG9mCu-e2iGNj0OQYxWkljmFvbaESApLXaN692zVSXx9XCKvrCqoGBJWhXeXkzlBtakdd03N2QYI16OJ05_MwG_DJlVkJGy_S3r2UIQbHLNnyrAtwXELYvHsf1o08UJaVjfKaHfudpkbSouNZ9RrtcvxzAKMQnO3QYhVQX0rgj1RU1RJ1BdSBttYfBSBKorAF2CEbDK3r4PnzpUNlktiuKiSHC6LLXFqhwbz13grnB5WH9_T14zTJ_-e1FFdmMphWeOfKikQVCqQm2xMs35DZmGEnjMreXUH4oMZ0jQ1BtceIFlw4V_u-nyZEjVAmCpPCiQC72jJb7umPW59y0SxGPHnixPxh9KuIxWzFJMKTOqEqspspJxJVEgLTcTPgnezeAxstHtj-w6sM-Qr-5oBzY3okm7ypAu1p5ssv7mW18r4_oFfsBebmiuzG-cMA5E13Eq1Xc4CNjU_60ZnUv2JMoxEcxx7A7p8UID91yWdOyGgkmnl5xT6DFtNMM9Bzp0xklqDNxw38zRJehEF46Kz-OcnBYzhHsNxnnKpQJIZtV5V2fAGMyCx9RhKlVXvioBeSjGWQe4epJbBZ8JKQjsSmsXbeXjR9QHQBj9HJOCwTPo9T1Ysd8Qyacg9sLn-9MSKFAlbKEJGjIFbwyhZPKgVj942PO-SJbgJ65UnaV5wNb19jJc18noeb9MeOnH2QV-qkgRvTJ6X_TH7sTWwV4I7MRblfPh5ELPwpy0]--></g></svg>